<svg id="Layer_3" enable-background="new 0 0 64 64" height="512" viewBox="0 0 64 64" width="512" xmlns="http://www.w3.org/2000/svg"><g><path d="m11 51h42c.553 0 1-.448 1-1v-22c0-.552-.447-1-1-1h-42c-.553 0-1 .448-1 1v22c0 .552.447 1 1 1zm1-11h34v9h-34zm40 9h-4v-20h4zm-6-20v9h-34v-9z"/><path d="m62 21c.553 0 1-.448 1-1v-10c0-.552-.447-1-1-1h-60c-.553 0-1 .448-1 1v10c0 .552.447 1 1 1 1.453 0 2.756.795 3.457 2h-3.457c-.553 0-1 .448-1 1v10c0 .552.447 1 1 1 2.206 0 4 1.794 4 4s-1.794 4-4 4c-.553 0-1 .448-1 1v10c0 .552.447 1 1 1h60c.553 0 1-.448 1-1v-10c0-.552-.447-1-1-1-2.206 0-4-1.794-4-4s1.794-4 4-4c.553 0 1-.448 1-1v-10c0-.552-.447-1-1-1h-3.457c.701-1.205 2.004-2 3.457-2zm-1 12.083c-2.834.478-5 2.949-5 5.917s2.166 5.439 5 5.917v8.083h-58v-8.083c2.834-.478 5-2.949 5-5.917s-2.166-5.439-5-5.917v-8.083h58zm-9-10.083h-4v-8h4zm-6 0h-34v-8h34zm8 0v-9c0-.552-.447-1-1-1h-42c-.553 0-1 .448-1 1v9h-2.349c-.725-2.046-2.516-3.553-4.651-3.916v-8.084h58v8.084c-2.135.363-3.926 1.869-4.651 3.916z"/><path d="m14 31h2v2h-2z"/><path d="m18 31h26v2h-26z"/><path d="m14 42h2v2h-2z"/><path d="m18 42h2v2h-2z"/><path d="m22 42h2v2h-2z"/><path d="m26 42h18v2h-18z"/></g></svg>