<svg height="512" viewBox="0 0 512 512" width="512" xmlns="http://www.w3.org/2000/svg"><g id="solid"><path d="m168 248h48v24h-48z"/><circle cx="216" cy="216" r="16"/><path d="m232 265.754 16 4v-11.508l-16 4z"/><circle cx="168" cy="216" r="16"/><path d="m464 176a23.9 23.9 0 0 1 6.126-16 23.979 23.979 0 0 1 -4.755-24h-418.742a23.979 23.979 0 0 1 -4.755 24 23.958 23.958 0 0 1 0 32 23.958 23.958 0 0 1 0 32 23.958 23.958 0 0 1 0 32 23.958 23.958 0 0 1 0 32 23.958 23.958 0 0 1 0 32 23.958 23.958 0 0 1 0 32 23.979 23.979 0 0 1 4.755 24h418.742a23.979 23.979 0 0 1 4.755-24 23.958 23.958 0 0 1 0-32 23.958 23.958 0 0 1 0-32 23.958 23.958 0 0 1 0-32 23.958 23.958 0 0 1 0-32 23.958 23.958 0 0 1 0-32 23.9 23.9 0 0 1 -6.126-16zm-16 120a8 8 0 0 1 -8 8 48.055 48.055 0 0 0 -48 48 8 8 0 0 1 -8 8h-256a8 8 0 0 1 -8-8 48.055 48.055 0 0 0 -48-48 8 8 0 0 1 -8-8v-80a8 8 0 0 1 8-8 48.055 48.055 0 0 0 48-48 8 8 0 0 1 8-8h256a8 8 0 0 1 8 8 48.055 48.055 0 0 0 48 48 8 8 0 0 1 8 8z"/><path d="m376.5 168h-241a64.138 64.138 0 0 1 -55.5 55.5v65a64.138 64.138 0 0 1 55.5 55.5h241a64.138 64.138 0 0 1 55.5-55.5v-65a64.138 64.138 0 0 1 -55.5-55.5zm-48.5 48h48a8 8 0 0 1 0 16h-48a8 8 0 0 1 0-16zm-64 64a8 8 0 0 1 -9.94 7.761l-22.366-5.591a8 8 0 0 1 -7.694 5.83h-4.184l11.612 29.029a8 8 0 1 1 -14.856 5.942l-13.988-34.971h-13.168l-13.988 34.971a8 8 0 0 1 -14.856-5.942l11.612-29.029h-12.184a8 8 0 0 1 -8-8v-36.3a31.985 31.985 0 1 1 40-48.827 31.984 31.984 0 1 1 40 48.827v2.059l22.06-5.515a8 8 0 0 1 9.94 7.756zm40 40a8 8 0 0 1 -16 0v-128a8 8 0 0 1 16 0zm56-16h-32a8 8 0 0 1 0-16h32a8 8 0 0 1 0 16zm40-40a8 8 0 0 1 -8 8h-64a8 8 0 0 1 0-16h64a8 8 0 0 1 8 8z"/></g></svg>